<?xml version="1.0" standalone="no"?>
<!DOCTYPE svg PUBLIC "-//W3C//DTD SVG 20010904//EN"
 "http://www.w3.org/TR/2001/REC-SVG-20010904/DTD/svg10.dtd">
<svg version="1.0" xmlns="http://www.w3.org/2000/svg"
 width="700.000000pt" height="700.000000pt" viewBox="0 0 700.000000 700.000000"
 preserveAspectRatio="xMidYMid meet">
<metadata>
Created by potrace 1.11, written by Peter Selinger 2001-2013
</metadata>
<g transform="translate(0.000000,700.000000) scale(0.100000,-0.100000)"
fill="#000000" stroke="none">
<path d="M3204 5990 c-387 -58 -702 -198 -1024 -455 -57 -45 -248 -245 -293
-305 -26 -36 -54 -72 -60 -80 -22 -28 -94 -145 -135 -221 -63 -116 -153 -347
-168 -429 -3 -14 -10 -43 -16 -65 -12 -47 -16 -66 -23 -120 -4 -22 -8 -53 -11
-69 -3 -16 -7 -54 -11 -85 -8 -85 -10 -1395 -1 -1481 80 -806 613 -1480 1377
-1740 225 -76 434 -109 676 -105 166 3 233 10 377 40 314 64 652 226 888 423
408 342 658 806 726 1346 9 70 11 1426 3 1501 -4 33 -10 87 -14 120 -22 199
-130 520 -239 709 -168 293 -400 538 -684 721 -229 147 -559 266 -832 300
-127 16 -413 13 -536 -5z"/>
</g>
</svg>
